<svg width="128" height="128" viewBox="0 0 128 128" fill="none" xmlns="http://www.w3.org/2000/svg">
<path fill-rule="evenodd" clip-rule="evenodd" d="M60 8C46.2087 8 32.9823 13.4786 23.2304 23.2304C13.4786 32.9823 8 46.2087 8 60C8 73.7913 13.4786 87.0177 23.2304 96.7696C32.9823 106.521 46.2087 112 60 112C73.7913 112 87.0177 106.521 96.7696 96.7696C106.521 87.0177 112 73.7913 112 60C112 46.2087 106.521 32.9823 96.7696 23.2304C87.0177 13.4786 73.7913 8 60 8ZM60 104C48.3305 104 37.1389 99.3643 28.8873 91.1127C20.6357 82.8611 16 71.6695 16 60C16 48.3305 20.6357 37.1389 28.8873 28.8873C37.1389 20.6357 48.3305 16 60 16C71.6695 16 82.8611 20.6357 91.1127 28.8873C99.3643 37.1389 104 48.3305 104 60C104 71.6695 99.3643 82.8611 91.1127 91.1127C82.8611 99.3643 71.6695 104 60 104ZM72.4 36.64C71.0179 35.2008 69.3576 34.0577 67.52 33.28C65.208 32.3543 62.7291 31.9185 60.24 32C57.8241 31.9561 55.4258 32.4194 53.2 33.36C51.288 34.16 49.6 35.392 48.24 36.96C46.9152 38.401 45.8827 40.0855 45.2 41.92C44.5653 43.7835 44.1622 45.7181 44 47.68H53.84C53.8853 46.4103 54.2897 45.1794 55.0062 44.1302C55.7226 43.081 56.7219 42.2564 57.888 41.752C58.6609 41.4475 59.4906 41.3138 60.32 41.36C61.0355 41.2463 61.7645 41.2463 62.48 41.36C63.1373 41.6086 63.7364 41.9898 64.24 42.48C64.7958 42.9609 65.2337 43.5631 65.52 44.24C65.8477 44.9971 66.0113 45.8151 66 46.64C66 48.024 65.704 49.384 65.12 50.64C64.539 51.9431 63.8145 53.1774 62.96 54.32L60.16 57.68C59.2 58.72 58.24 59.84 57.36 60.96C56.5067 62.0748 55.7821 63.2825 55.2 64.56C54.645 65.8191 54.372 67.1843 54.4 68.56V73.84H64V69.92C64.0271 68.7467 64.3285 67.596 64.88 66.56C65.5375 65.4084 66.2866 64.3115 67.12 63.28L70 59.76C71.0484 58.5488 72.0108 57.2656 72.88 55.92C73.7994 54.5479 74.5514 53.0707 75.12 51.52C75.7034 49.8761 76.0011 48.1444 76 46.4C76.0143 44.5826 75.7443 42.7741 75.2 41.04C74.5959 39.3881 73.6406 37.8869 72.4 36.64ZM54.4 78.64H63.76V88H54.4V78.64Z" fill="#D12CAB"/>
</svg>
