<svg width="239" height="220" viewBox="0 0 239 220" fill="none" xmlns="http://www.w3.org/2000/svg">
<g clip-path="url(#clip0_126_100)">
<path d="M232.732 0.00997763C232.06 0.114414 231.453 0.381489 230.884 0.654509C228.608 1.74659 226.526 3.64441 224.588 5.11544C222.651 6.58647 220.794 7.2481 220.837 7.25411L220.686 7.23263H205.059L204.774 7.3088C198.278 9.04518 184.071 16.5446 172.59 34.7834C161.953 51.6798 157.035 62.984 155.314 68.5119C151.215 76.5171 150.467 82.6772 136.828 93.2853C130.778 97.9909 129.829 98.4656 127.246 99.6271C124.663 100.789 120.541 102.531 109.412 109.072C102.432 113.175 101.653 113.001 98.7906 114.33C95.9278 115.66 91.7629 118.169 78.8537 127.194C68.5207 134.417 59.2965 149.346 53.069 164.029C49.3167 166.268 35.9405 171.733 13.2236 171.733H13.1346L13.0457 171.741C10.9373 171.913 8.53576 172.116 6.14558 173.567C3.7554 175.017 1.33092 178.508 0.736152 183.313C0.369609 186.274 1.69497 189.217 2.82642 190.42C3.95787 191.623 5.09306 192.189 6.35835 192.701C8.56521 193.595 11.2206 194.08 14.0025 194.438L1.85156 201.233L7.94185 206.563C11.7143 209.864 16.5734 210.104 21.6569 209.899C26.7404 209.694 31.7931 208.638 35.3127 207.016C43.7612 203.121 50.0872 195.199 55.9123 193.098C63.1637 190.483 62.3615 186.733 89.5385 186.733C105.813 186.733 118.025 183.613 125.662 180.555C124.818 184.169 124.185 187.177 123.175 191.026C121.261 198.322 118.882 205.438 118.01 206.969L110.829 219.582L121.41 215.043C132.254 210.391 151.28 195.139 160.235 165.346C160.381 165.309 160.498 165.318 160.65 165.268C161.03 166.158 161.479 166.94 161.951 167.635C163.933 170.555 166.633 172.693 169.846 174.705C176.271 178.73 184.6 181.733 191.483 181.733H201.785L193.402 172.664C190.299 169.307 186.145 163.265 183.274 158.01C181.839 155.382 180.71 152.888 180.202 151.354C180.201 151.351 180.201 151.353 180.2 151.35C180.975 150.178 181.634 149.006 182.109 147.981C182.824 146.435 183.342 145.212 184.305 143.676H184.303C190.105 134.426 194.201 119.104 198.02 103.192C201.723 87.7588 205.01 71.852 208.065 61.3714C209.886 58.9011 215.613 54.0409 221.406 48.2718C227.42 42.2824 233.759 34.9703 236.195 24.3792C238.159 15.845 239.073 11.0139 238.381 6.22103C238.035 3.82462 236.622 1.09996 234.966 0.342129C234.138 -0.0367879 233.403 -0.0944585 232.732 0.00997763ZM231.704 11.0393C231.492 13.1544 231.077 16.2371 229.961 21.0881C228.457 27.6241 223.406 34.3124 217.779 39.9162C212.151 45.5201 206.406 49.56 203.014 54.6975L202.591 55.3381L202.343 56.1642C198.876 67.7187 195.556 84.1877 191.815 99.7756C188.074 115.363 183.75 130.04 179.517 136.789C178.143 138.981 177.314 140.919 176.702 142.24C176.09 143.562 175.75 144.236 174.983 145.104C174.008 146.208 171.42 148.131 168.906 149.711C166.687 151.106 164.714 152.225 163.184 153.194C163.883 149.226 164.434 145.104 164.728 140.74L158.16 139.727C157.69 146.72 156.59 153.065 155.029 158.84H155.028C149.356 179.839 137.265 193.477 127.665 200.592C128.21 198.641 128.759 196.819 129.31 194.717C131.304 187.117 133.113 179.145 134.164 174.291H134.165C135.196 169.533 135.532 167.7 135.669 165.986C135.806 164.273 135.681 164.203 135.978 161.578L136.025 161.158V140.233H129.423V160.547C129.199 162.849 129.15 164.35 129.116 164.781C129.09 165.095 128.652 167.236 128.344 168.809C123.328 171.536 109.516 176.733 89.5384 176.733C61.9177 176.733 59.9783 181.352 54.3843 183.369H54.3829C46.3434 186.269 40.1265 194.344 33.39 197.449C31.3212 198.403 27.6064 199.203 23.8309 199.6L32.1933 194.924L31.0495 185.233C28.6223 185.233 21.7599 185.324 15.6865 184.647C12.7433 184.318 10.0419 183.759 8.2977 183.088C8.41588 183.011 8.44612 182.944 8.60073 182.85C9.61475 182.234 11.4339 181.89 13.3938 181.729C13.3966 181.728 13.3987 181.727 13.4015 181.727C37.7345 181.698 51.5601 176.121 56.4887 172.803L57.4171 172.178L57.9523 170.869C63.6159 157.049 72.8414 142.41 81.6196 136.274C94.459 127.298 98.3871 124.977 100.726 123.891C103.065 122.805 104.596 122.63 111.802 118.395C122.791 111.936 126.426 110.426 129.125 109.213C131.823 108 133.68 106.976 139.844 102.182C154.676 90.646 157.294 80.8014 160.672 74.3361L160.933 73.838L161.103 73.258C161.797 70.8836 166.721 58.5959 177.367 41.6837C187.448 25.6698 200.894 18.5903 205.739 17.2326H220.533L220.229 17.2111C223.243 17.6338 225.39 15.6932 227.548 14.0549C229.23 12.7775 230.552 11.8039 231.704 11.0393ZM179.054 152.949C179.043 152.964 179.044 152.986 179.032 153L179.025 152.988C179.036 152.976 179.043 152.962 179.054 152.949ZM174.676 156.777C175.569 159.231 176.743 161.741 178.187 164.385C179.164 166.173 180.349 167.936 181.473 169.721C178.242 168.605 175.025 167.127 172.369 165.463C170.141 164.068 168.498 162.582 167.425 161.387C168.691 160.632 169.747 160.009 171.437 158.947C172.529 158.261 173.612 157.531 174.676 156.777Z" fill="white"/>
<rect x="89.9999" y="153.473" width="100.383" height="38.15" transform="rotate(-44.591 89.9999 153.473)" fill="white"/>
<path d="M108.775 161.322L171.005 53L204.084 72.004L141.854 180.326L108.775 161.322Z" fill="white"/>
<path d="M125.563 199.728L152.729 152.441L160.166 156.713L133 204L125.563 199.728Z" fill="white"/>
<path d="M125 190.287L152.166 143L159.602 147.272L132.436 194.559L125 190.287Z" fill="white"/>
<path d="M53.9071 165.091L111.155 160.134L112.839 179.584L55.5911 184.541L53.9071 165.091Z" fill="white"/>
<path d="M145 142.377L165.445 79.0001L197.264 89.2647L176.819 152.642L145 142.377Z" fill="white"/>
<path d="M154 152.717L164.861 142.509L186.811 165.863L175.949 176.071L154 152.717Z" fill="white"/>
<rect x="145" y="94.3218" width="86.2219" height="35.6549" transform="rotate(-60.123 145 94.3218)" fill="white"/>
<rect x="66.9764" y="169.818" width="119.392" height="15.7019" transform="rotate(-44.591 66.9764 169.818)" fill="white"/>
<rect x="58.4861" y="168.608" width="92.029" height="15.7019" transform="rotate(-44.591 58.4861 168.608)" fill="white"/>
<rect x="41.9999" y="174.608" width="92.029" height="15.5539" transform="rotate(-44.591 41.9999 174.608)" fill="white"/>
<rect x="17.9999" y="197.471" width="40.5544" height="15.5539" transform="rotate(-44.591 17.9999 197.471)" fill="white"/>
<rect x="8.17725" y="174" width="40.5544" height="15.5539" transform="rotate(4.34119 8.17725 174)" fill="white"/>
<rect x="186.75" y="34.7705" width="30.8735" height="32.5805" transform="rotate(-60.123 186.75 34.7705)" fill="white"/>
<rect x="207" y="35.7703" width="34.0489" height="14.3856" transform="rotate(-60.123 207 35.7703)" fill="white"/>
</g>
<defs>
<clipPath id="clip0_126_100">
<rect width="239" height="220" fill="white"/>
</clipPath>
</defs>
</svg>
