<svg width="199" height="193" viewBox="0 0 199 193" fill="none" xmlns="http://www.w3.org/2000/svg">
<g clip-path="url(#clip0_28_203)">
<path d="M9.87876 -0.0117483C8.48935 -0.083695 7.12016 0.0714307 5.73423 0.560517C2.96237 1.53869 0.852922 4.33838 0.286967 6.82419C-0.844945 11.7958 0.884143 16.1531 2.94126 21.0039C4.95256 25.7466 7.70723 30.6839 10.4627 35.0761C10.4665 35.0821 10.4687 35.0897 10.4725 35.0957L22.0741 56.8476C23.9493 73.8634 32.7503 86.1694 39.1991 92.5488C31.2112 115.577 29.177 131.217 30.5663 141.799C32.0199 152.87 37.7027 159.29 44.1991 160.176L46.8866 160.543L66.0311 138.353L77.0722 157.771L77.121 157.85C81.164 164.396 91.9181 177.899 107.541 186.144L112.207 177.301C99.0431 170.353 88.6112 157.412 85.6424 152.613L67.7167 121.09L43.6327 149.006C42.4616 147.803 41.138 145.49 40.4823 140.496C39.3692 132.018 40.9358 116.88 49.578 92.9179L50.7577 89.6445L48.0975 87.4004C43.9257 83.8803 33.2948 70.9735 31.8553 54.7793L31.7635 53.7675L19.1991 30.209L19.1034 30.0547C16.5049 25.9371 13.888 21.2019 12.1483 17.0996C10.7965 13.912 10.3665 11.4537 10.2088 10.1894C10.5965 10.2094 10.4558 10.1254 11.3768 10.3906C15.0274 11.4417 22.1197 15.0675 32.5116 22.3222L33.7655 23.1972L35.2928 23.2226C44.8732 23.3797 60.4274 25.3944 74.4198 30.7207C88.4121 36.047 100.511 44.4985 105.191 56.9785C116.156 86.2179 129.882 110.483 135.676 119.437L137.178 121.758L139.939 121.721C144.817 121.656 156.079 123.923 165.992 127.555C170.617 129.249 174.95 131.238 178.461 133.281C175.529 133.646 172.53 134.029 169.402 134.641C161.472 136.191 153.531 138.349 147.816 142.766L144.666 145.201L146.334 148.816C148.702 153.948 155.201 164.971 165.496 174.408C174.428 182.595 178.123 191.069 178.5 192.5L188.209 189.949C186.919 185.049 182.52 176.45 172.252 167.037C165.637 160.973 160.479 153.523 157.584 148.633C161.185 146.985 166.172 145.461 171.32 144.455C178.565 143.039 186.082 142.376 190.549 142.219L198.453 141.941L194.812 134.92C192.649 130.747 188.896 127.851 184.474 125.166C180.053 122.481 174.837 120.144 169.432 118.164C159.908 114.676 150.234 112.374 142.82 111.916C137.019 102.599 124.563 80.156 114.555 53.4668C108.435 37.1468 93.4526 27.2653 77.9784 21.375C63.1503 15.7306 47.6976 13.6334 36.9608 13.3086C26.9413 6.40842 19.7363 2.39126 14.1444 0.78122C12.6792 0.359352 11.2682 0.0601984 9.87876 -0.0117483Z" fill="#01748F"/>
<path d="M119 141.169L178.11 124L182.336 138.549L123.226 155.718L119 141.169Z" fill="#01748F"/>
<path d="M106.218 111L170.609 123.541L166.391 145.198L102 132.657L106.218 111Z" fill="#01748F"/>
<path d="M30.3074 54.9634L84.3517 25.502L150.355 146.58L96.3111 176.041L30.3074 54.9634Z" fill="#01748F"/>
<path d="M30.3074 54.9634L84.3517 25.502L150.355 146.58L96.3111 176.041L30.3074 54.9634Z" fill="#01748F"/>
<path d="M96.764 165.389L148.841 137L160.077 157.611L108 186L96.764 165.389Z" fill="#01748F"/>
<path d="M109.5 172.5L180.056 179.319L178.5 192.5L107.5 186L109.5 172.5Z" fill="#01748F"/>
<path d="M123.145 164.046L171.477 168.717L169.656 185.556L121 181.315L123.145 164.046Z" fill="#01748F"/>
<path d="M139.75 158.022L162.853 160.255L161.277 175.606L138 173.777L139.75 158.022Z" fill="#01748F"/>
<path d="M25.9999 58.001L66.3588 36L89.8889 79.1639L49.53 101.165L25.9999 58.001Z" fill="#01748F"/>
<path d="M1.76659 14.3944L18.9999 4.99995L53.7633 68.7704L36.53 78.1649L1.76659 14.3944Z" fill="#01748F"/>
<path d="M16.9999 22.3944L34.2332 13L68.9966 76.7704L51.7633 86.1649L16.9999 22.3944Z" fill="#01748F"/>
<path d="M29.9999 53.0753L41.0835 17L86.8278 31.0542L75.7442 67.1296L29.9999 53.0753Z" fill="#01748F"/>
<path d="M82.9999 42.8584L97.4154 35L136.12 106L121.705 113.859L82.9999 42.8584Z" fill="#01748F"/>
<path d="M33.9999 112.899L68.7715 63L97.2795 82.8656L62.5078 132.764L33.9999 112.899Z" fill="#01748F"/>
<path d="M33.9999 143L62.0714 102.716L75.2795 111.92L47.2079 152.204L33.9999 143Z" fill="#01748F"/>
<path d="M33.9999 129.284L62.0714 89L75.2795 98.204L47.2079 138.488L33.9999 129.284Z" fill="#01748F"/>
</g>
<defs>
<clipPath id="clip0_28_203">
<rect width="199" height="193" fill="white"/>
</clipPath>
</defs>
</svg>
