<svg width="347" height="297" viewBox="0 0 347 297" fill="none" xmlns="http://www.w3.org/2000/svg">
<path d="M146.131 93.5424C147.147 76.9426 160.906 64 177.536 64V64C194.913 64 209 78.0867 209 95.4636V172.229V223.873C209 225.99 208.832 228.103 208.498 230.192L203.644 260.526C202.077 270.322 195.721 278.689 186.703 282.825V282.825C170.354 290.325 151.145 281.683 145.912 264.474L142.701 253.916C141.573 250.206 141 246.35 141 242.472V177.428L146.131 93.5424Z" fill="#336791"/>
<path d="M346.052 88.8683C346.052 153.381 278.942 250.106 246.582 250.106C214.223 250.106 200 189.322 200 124.81C200 60.2975 214.223 8 246.582 8C278.942 8 346.052 24.356 346.052 88.8683Z" fill="#336791"/>
<path d="M346.052 88.8683C346.052 153.381 278.942 250.106 246.582 250.106C214.223 250.106 200 189.322 200 124.81C200 60.2975 214.223 8 246.582 8C278.942 8 346.052 24.356 346.052 88.8683Z" fill="#336791"/>
<path d="M5.82343e-05 80.8683C5.82343e-05 145.381 67.1106 242.106 99.4701 242.106C131.829 242.106 146.052 181.322 146.052 116.81C146.052 52.2975 131.829 0 99.4701 0C67.1106 0 5.82343e-05 16.356 5.82343e-05 80.8683Z" fill="#336791"/>
<path d="M5.82343e-05 80.8683C5.82343e-05 145.381 67.1106 242.106 99.4701 242.106C131.829 242.106 146.052 181.322 146.052 116.81C146.052 52.2975 131.829 0 99.4701 0C67.1106 0 5.82343e-05 16.356 5.82343e-05 80.8683Z" fill="#336791"/>
<ellipse cx="170" cy="112.5" rx="97" ry="104.5" fill="#336791"/>
</svg>
