<svg width="128" height="128" viewBox="0 0 128 128" fill="none" xmlns="http://www.w3.org/2000/svg">
<g clip-path="url(#clip0_25_2)">
<path fill-rule="evenodd" clip-rule="evenodd" d="M65.4828 8.666L61.0165 8.69736L13.7437 40.9938L13.7722 47.6186L61.045 79.3222L65.4544 79.353L114.182 47.6494L114.21 40.9624L65.4828 8.666ZM23.1358 44.2658L63.3068 16.8214L104.713 44.2656L63.3063 71.2063L23.1358 44.2658ZM61.0447 99.3224L14.3406 68H28.7035L63.3061 91.2064L98.9728 68H113.642L107.245 72.1625C106.178 72.055 105.095 72 104 72C89.792 72 77.7471 81.2592 73.5698 94.0728L65.4542 99.3528L61.0447 99.3224ZM72.0358 105.526L63.3061 111.206L28.7035 88H14.3406L61.0447 119.322L65.4542 119.353L73.609 114.047C72.7172 111.348 72.175 108.49 72.0358 105.526Z" fill="#D12CAB"/>
<path fill-rule="evenodd" clip-rule="evenodd" d="M90.6664 84.0448C94.6128 81.4072 99.2536 80 104 80C110.363 80.008 116.462 82.5392 120.962 87.0384C125.461 91.5376 127.992 97.6368 128 104C128 108.746 126.593 113.387 123.955 117.334C121.318 121.281 117.57 124.357 113.185 126.173C108.799 127.99 103.974 128.465 99.3176 127.539C94.6624 126.613 90.3856 124.327 87.0296 120.97C83.6728 117.614 81.3872 113.338 80.4608 108.682C79.5351 104.026 80.0104 99.2008 81.8272 94.8152C83.6432 90.4304 86.7192 86.6816 90.6664 84.0448ZM104.252 114.581L118.57 95.4904L112.17 90.6904L100.328 106.479L93.324 100.876L88.3264 107.122L98.5536 115.304L104.252 114.581Z" fill="#D12CAB"/>
</g>
<defs>
<clipPath id="clip0_25_2">
<rect width="128" height="128" fill="white"/>
</clipPath>
</defs>
</svg>
