<svg width="112" height="130" viewBox="0 0 112 130" fill="none" xmlns="http://www.w3.org/2000/svg">
<path d="M51.2181 2.59094C41.5145 8.38317 27.8328 18.3832 17.1312 30.3355C6.42963 42.2877 -1.38333 56.2142 2.01458 69.8003C8.14204 94.3001 33.456 108.759 49.4884 114.374V122.099H62.5117V110.263L59.0982 109.244C48.1968 105.992 20.8522 92.5543 14.9157 68.8184C12.0625 57.4101 18.7927 44.7024 28.8089 33.5156C38.8251 22.3288 52.036 12.6849 60.782 7.46426L51.2181 2.59094Z" fill="#00ED64"/>
<path d="M60.782 2.59094L51.2181 7.46426C59.9637 12.6849 73.1755 22.3288 83.1912 33.5156C93.2069 44.7024 99.9349 57.41 97.0818 68.8184C91.1456 92.5544 63.8025 105.992 52.9019 109.244L49.4884 110.263V122.099H62.5117V114.374C78.5434 108.759 103.856 94.3 109.983 69.8004C113.381 56.2143 105.567 42.2877 94.8663 30.3355C84.1653 18.3832 70.4851 8.38318 60.782 2.59094Z" fill="#00ED64"/>
<path d="M55.7101 0.265137L46.7566 5.48074L52.1465 8.29615L61.1 3.08055L55.7101 0.265137Z" fill="#00ED64"/>
<path d="M56.0001 63.2046L62.7672 113.301H49.2329L56.0001 63.2046Z" fill="#00ED64"/>
<rect x="18.8319" y="35.7971" width="75.3274" height="57.7778" fill="#00ED64"/>
<rect x="10.9027" y="44.5894" width="51.5398" height="35.1691" fill="#00ED64"/>
<rect x="49.5575" y="48.3575" width="51.5398" height="35.1691" fill="#00ED64"/>
<rect x="30.7257" y="65.942" width="51.5398" height="35.1691" fill="#00ED64"/>
<rect x="40.6372" y="85.4106" width="30.7257" height="21.3527" fill="#00ED64"/>
<rect x="25.7699" y="25.1207" width="30.7257" height="21.3527" fill="#00ED64"/>
<rect x="55.5044" y="25.1207" width="30.7257" height="21.3527" fill="#00ED64"/>
<rect x="33.6991" y="14.4445" width="30.7257" height="21.3527" fill="#00ED64"/>
<rect x="46.5841" y="14.4445" width="30.7257" height="21.3527" fill="#00ED64"/>
<rect x="41.6283" y="10.0483" width="30.7257" height="21.3527" fill="#00ED64"/>
</svg>
