<svg width="279" height="309" viewBox="0 0 279 309" fill="none" xmlns="http://www.w3.org/2000/svg">
<path d="M121.643 6.15845C98.5969 19.9261 66.1029 43.6955 40.6866 72.105C15.2703 100.515 -3.28547 133.617 4.78457 165.91C19.3373 224.144 79.4579 258.511 117.535 271.859V290.221H148.465V262.086L140.358 259.665C114.467 251.934 49.5238 219.994 35.4248 163.576C28.6484 136.459 44.6326 106.254 68.4211 79.664C92.2096 53.0739 123.585 30.1511 144.357 17.7419L121.643 6.15845Z" fill="#00ED64"/>
<path d="M144.357 6.15845L121.643 17.7419C142.414 30.1511 173.792 53.0739 197.579 79.664C221.366 106.254 237.345 136.459 230.569 163.576C216.471 219.995 151.531 251.934 125.642 259.665L117.535 262.086V290.221H148.465V271.859C186.541 258.511 246.657 224.144 261.209 165.91C269.279 133.617 250.722 100.515 225.307 72.105C199.892 43.6955 167.402 19.9261 144.357 6.15845Z" fill="#00ED64"/>
<path d="M132.311 0.630127L111.047 13.0272L123.848 19.7192L145.112 7.32215L132.311 0.630127Z" fill="#00ED64"/>
<path d="M133 150.232L149.072 269.308H116.928L133 150.232Z" fill="#00ED64"/>
<rect x="44.7256" y="85.0869" width="178.903" height="137.333" fill="#00ED64"/>
<rect x="25.8938" y="105.986" width="122.407" height="83.5942" fill="#00ED64"/>
<rect x="117.699" y="114.942" width="122.407" height="83.5942" fill="#00ED64"/>
<rect x="72.9734" y="156.739" width="122.407" height="83.5942" fill="#00ED64"/>
<rect x="96.5132" y="203.014" width="72.9734" height="50.7536" fill="#00ED64"/>
<rect x="61.2036" y="59.7102" width="72.9734" height="50.7536" fill="#00ED64"/>
<rect x="131.823" y="59.7102" width="72.9734" height="50.7536" fill="#00ED64"/>
<rect x="80.0354" y="34.3333" width="72.9734" height="50.7536" fill="#00ED64"/>
<rect x="110.637" y="34.3333" width="72.9734" height="50.7536" fill="#00ED64"/>
<rect x="98.8672" y="23.884" width="72.9734" height="50.7536" fill="#00ED64"/>
<circle cx="255.5" cy="285.5" r="23.5" fill="#73C991"/>
</svg>
