<svg width="239" height="205" viewBox="0 0 239 205" fill="none" xmlns="http://www.w3.org/2000/svg">
<ellipse cx="108.5" cy="40.6733" rx="108.5" ry="40.6733" fill="#81BC06"/>
<path d="M217 90.8384C217 113.302 168.423 131.512 108.5 131.512C48.5771 131.512 0 113.302 0 90.8384C0 68.3751 48.5771 101.335 108.5 101.335C168.423 101.335 217 68.3751 217 90.8384Z" fill="#F35325"/>
<path d="M217 138.229C217 160.692 168.423 178.902 108.5 178.902C48.5771 178.902 0 160.692 0 138.229C0 115.766 48.5771 148.725 108.5 148.725C168.423 148.725 217 115.766 217 138.229Z" fill="#FFBA08"/>
<circle cx="221.5" cy="187.5" r="17.5" fill="#73C991"/>
</svg>
