<svg width="234" height="211" viewBox="0 0 234 211" fill="none" xmlns="http://www.w3.org/2000/svg">
<g clip-path="url(#clip0_130_68)">
<path d="M9.87889 -0.0116262C8.48947 -0.0835729 7.12029 0.0715527 5.73435 0.560639C2.96249 1.53881 0.853045 4.33851 0.287089 6.82431C-0.844823 11.7959 0.884265 16.1532 2.94139 21.004C4.95269 25.7467 7.70735 30.684 10.4629 35.0763C10.4667 35.0823 10.4689 35.0898 10.4727 35.0958L22.0742 56.8477C23.9494 73.8635 32.7504 86.1695 39.1992 92.5489C31.2114 115.577 29.1771 131.217 30.5664 141.799C32.02 152.87 37.7028 159.29 44.1992 160.176L46.8867 160.543L66.0313 138.354L77.0723 157.772L77.1211 157.85C81.1642 164.396 91.9182 177.899 107.541 186.145L112.207 177.301C99.0433 170.353 88.6113 157.412 85.6426 152.613L67.7168 121.09L43.6328 149.006C42.4617 147.803 41.1381 145.491 40.4824 140.496C39.3693 132.018 40.9359 116.88 49.5781 92.9181L50.7578 89.6446L48.0976 87.4005C43.9258 83.8805 33.2949 70.9736 31.8554 54.7794L31.7636 53.7677L19.1992 30.2091L19.1035 30.0548C16.505 25.9372 13.8882 21.2021 12.1484 17.0997C10.7966 13.9121 10.3666 11.4538 10.209 10.1895C10.5966 10.2095 10.4559 10.1255 11.3769 10.3907C15.0275 11.4418 22.1198 15.0677 32.5117 22.3224L33.7656 23.1974L35.2929 23.2227C44.8733 23.3798 60.4276 25.3945 74.4199 30.7208C88.4122 36.0471 100.511 44.4986 105.191 56.9786C116.156 86.218 129.882 110.483 135.676 119.438L137.178 121.758L139.939 121.721C144.817 121.656 156.079 123.924 165.992 127.555C170.617 129.249 174.95 131.239 178.461 133.281C175.529 133.646 172.53 134.029 169.402 134.641C161.472 136.191 153.532 138.349 147.816 142.766L144.666 145.201L146.334 148.817C148.702 153.948 155.201 164.971 165.496 174.408C174.428 182.596 178.123 191.069 178.5 192.5L188.209 189.949C186.92 185.049 182.52 176.45 172.252 167.037C165.637 160.973 160.479 153.523 157.584 148.633C161.185 146.985 166.172 145.462 171.32 144.455C178.565 143.039 186.083 142.376 190.549 142.219L198.453 141.942L194.812 134.92C192.649 130.747 188.896 127.851 184.475 125.166C180.053 122.482 174.837 120.144 169.432 118.164C159.908 114.676 150.234 112.374 142.82 111.916C137.019 102.599 124.563 80.1562 114.555 53.4669C108.435 37.1469 93.4527 27.2655 77.9785 21.3751C63.1504 15.7307 47.6977 13.6335 36.9609 13.3087C26.9414 6.40854 19.7365 2.39139 14.1445 0.781343C12.6793 0.359474 11.2683 0.0603204 9.87889 -0.0116262Z" fill="#01748F"/>
<path d="M119 141.169L178.11 124L182.336 138.549L123.226 155.718L119 141.169Z" fill="#01748F"/>
<path d="M106.218 111L170.61 123.541L166.392 145.198L102 132.657L106.218 111Z" fill="#01748F"/>
<path d="M30.3076 54.9634L84.3519 25.502L150.356 146.58L96.3113 176.041L30.3076 54.9634Z" fill="#01748F"/>
<path d="M30.3076 54.9634L84.3519 25.502L150.356 146.58L96.3113 176.041L30.3076 54.9634Z" fill="#01748F"/>
<path d="M96.7642 165.389L148.841 137L160.077 157.611L108 186L96.7642 165.389Z" fill="#01748F"/>
<path d="M109.5 172.5L180.056 179.319L178.5 192.5L107.5 186L109.5 172.5Z" fill="#01748F"/>
<path d="M123.145 164.046L171.477 168.717L169.656 185.556L121 181.315L123.145 164.046Z" fill="#01748F"/>
<path d="M139.75 158.022L162.853 160.255L161.277 175.606L138 173.777L139.75 158.022Z" fill="#01748F"/>
<path d="M26 58.001L66.3589 36L89.889 79.1639L49.5301 101.165L26 58.001Z" fill="#01748F"/>
<path d="M1.76659 14.3945L18.9999 5.00007L53.7633 68.7705L36.53 78.165L1.76659 14.3945Z" fill="#01748F"/>
<path d="M17 22.3945L34.2333 13.0001L68.9967 76.7705L51.7634 86.165L17 22.3945Z" fill="#01748F"/>
<path d="M30 53.0752L41.0836 16.9998L86.8279 31.0541L75.7443 67.1295L30 53.0752Z" fill="#01748F"/>
<path d="M83 42.8584L97.4155 35L136.12 106L121.705 113.859L83 42.8584Z" fill="#01748F"/>
<path d="M34 112.899L68.7717 63L97.2796 82.8656L62.5079 132.764L34 112.899Z" fill="#01748F"/>
<path d="M34 143L62.0716 102.716L75.2796 111.92L47.2081 152.204L34 143Z" fill="#01748F"/>
<path d="M34 129.284L62.0716 88.9999L75.2796 98.2039L47.2081 138.488L34 129.284Z" fill="#01748F"/>
</g>
<circle cx="216.5" cy="193.5" r="17.5" fill="#73C991"/>
<defs>
<clipPath id="clip0_130_68">
<rect width="199" height="193" fill="white"/>
</clipPath>
</defs>
</svg>
