<svg width="310" height="305" viewBox="0 0 310 305" fill="none" xmlns="http://www.w3.org/2000/svg">
<g clip-path="url(#clip0_130_31)">
<path d="M139.362 143.17L268.555 73.9351C275.203 70.3729 283.368 73.0812 286.793 79.9842L289.274 84.9839C292.699 91.887 290.087 100.371 283.44 103.933L154.247 173.168C147.6 176.73 139.434 174.022 136.009 167.119L133.528 162.119C130.103 155.216 132.715 146.732 139.362 143.17Z" fill="#D12E25"/>
<path d="M154.248 6.45043L283.439 75.6886C290.087 79.251 292.698 87.7349 289.273 94.6379L286.792 99.6375C283.366 106.54 275.201 109.249 268.554 105.686L139.363 36.4479C132.715 32.8855 130.104 24.4016 133.529 17.4986L136.01 12.499C139.435 5.59605 147.601 2.88799 154.248 6.45043Z" fill="#D12E25"/>
<path d="M155.93 143.164L26.9012 73.9408C20.2556 70.3754 12.0939 73.0825 8.67162 79.9871L6.19647 84.981C2.77421 91.8856 5.38732 100.373 12.033 103.939L141.062 173.162C147.708 176.727 155.87 174.02 159.292 167.116L161.767 162.122C165.189 155.217 162.576 146.73 155.93 143.164Z" fill="#D12E25"/>
<path d="M150.014 152.682L239.205 107.95C243.799 105.646 240.809 91.5941 232.528 76.5636L226.538 65.6927C218.257 50.6621 207.819 40.3451 203.225 42.649L114.035 87.3805C109.441 89.6844 112.43 103.737 120.712 118.767L126.702 129.638C134.983 144.669 145.421 154.986 150.014 152.682Z" fill="#D12E25"/>
<path d="M105.001 136.192L194.191 91.4602C198.785 89.1563 195.796 75.1039 187.514 60.0733L181.525 49.2025C173.243 34.1719 162.806 23.8549 158.212 26.1588L69.0213 70.8902C64.4276 73.1941 67.417 87.2465 75.6985 102.277L81.6881 113.148C89.9696 128.179 100.407 138.496 105.001 136.192Z" fill="#D12E25"/>
<path d="M86.6059 136.192L175.796 91.4602C180.39 89.1563 177.401 75.1039 169.119 60.0733L163.13 49.2025C154.848 34.1719 144.411 23.8549 139.817 26.1588L50.6263 70.8902C46.0325 73.1941 49.022 87.2465 57.3035 102.277L63.2931 113.148C71.5746 128.179 82.0121 138.496 86.6059 136.192Z" fill="#D12E25"/>
<path d="M136.554 199.736L270.562 127.921C275.88 125.071 283.475 129.38 287.526 137.545C291.577 145.709 290.551 154.638 285.233 157.488L151.225 229.303C145.907 232.152 138.312 227.844 134.261 219.679C130.21 211.515 131.237 202.586 136.554 199.736Z" fill="#D12E25"/>
<path d="M140.234 249.207L274.241 177.392C279.559 174.542 287.154 178.851 291.205 187.015C295.256 195.18 294.23 204.109 288.912 206.959L154.904 278.773C149.587 281.623 141.992 277.315 137.94 269.15C133.889 260.986 134.916 252.057 140.234 249.207Z" fill="#D12E25"/>
<path d="M158.127 199.731L24.2842 127.926C18.9676 125.073 11.3765 129.381 7.32888 137.548C3.28127 145.714 4.30995 154.647 9.6265 157.499L143.469 229.304C148.786 232.157 156.377 227.849 160.424 219.682C164.472 211.516 163.443 202.584 158.127 199.731Z" fill="#D12E25"/>
<path d="M158.127 251.035L24.2842 179.229C18.9676 176.377 11.3765 180.685 7.32888 188.851C3.28127 197.017 4.30995 205.95 9.6265 208.802L143.469 280.608C148.786 283.46 156.377 279.152 160.424 270.986C164.472 262.819 163.443 253.887 158.127 251.035Z" fill="#D12E25"/>
<path d="M141.062 6.45606L12.0341 75.6829C5.38854 79.2485 2.77565 87.7362 6.19808 94.6408L8.67335 99.6345C12.0958 106.539 20.2575 109.246 26.9031 105.68L155.931 36.4535C162.576 32.888 165.189 24.4003 161.767 17.4957L159.291 12.5019C155.869 5.59735 147.707 2.89052 141.062 6.45606Z" fill="#D12E25"/>
</g>
<circle cx="286.5" cy="281.5" r="23.5" fill="#73C991"/>
<defs>
<clipPath id="clip0_130_31">
<rect width="298" height="284" fill="white"/>
</clipPath>
</defs>
</svg>
