<svg width="162" height="155" viewBox="0 0 162 155" fill="none" xmlns="http://www.w3.org/2000/svg">
<g clip-path="url(#clip0_126_32)">
<path d="M75.7606 78.1385L145.993 40.3519C149.607 38.4077 154.046 39.8858 155.908 43.6534L157.256 46.382C159.118 50.1496 157.698 54.7798 154.085 56.724L83.8523 94.5105C80.2387 96.4547 75.7998 94.9766 73.9378 91.2091L72.5892 88.4804C70.7271 84.7129 72.147 80.0826 75.7606 78.1385Z" fill="#D12E25"/>
<path d="M83.8528 3.52049L154.084 41.3089C157.698 43.2532 159.118 47.8835 157.256 51.651L155.907 54.3796C154.045 58.1471 149.606 59.6251 145.992 57.6808L75.7608 19.8924C72.1472 17.9481 70.7274 13.3178 72.5895 9.55031L73.9382 6.82167C75.8004 3.05419 80.2393 1.5762 83.8528 3.52049Z" fill="#D12E25"/>
<path d="M84.7675 78.1354L14.6241 40.355C11.0114 38.4091 6.57447 39.8866 4.71405 43.655L3.3685 46.3805C1.50808 50.1489 2.92863 54.7812 6.54138 56.7271L76.6848 94.5075C80.2976 96.4533 84.7344 94.9759 86.5949 91.2075L87.9404 88.482C89.8008 84.7136 88.3803 80.0813 84.7675 78.1354Z" fill="#D12E25"/>
<path d="M81.5513 83.3299L130.037 58.9166C132.535 57.6592 130.91 49.9898 126.408 41.7865L123.151 35.8535C118.649 27.6502 112.975 22.0194 110.478 23.2768L61.9919 47.6901C59.4946 48.9475 61.1198 56.6169 65.6218 64.8202L68.8779 70.7533C73.3799 78.9566 79.054 84.5873 81.5513 83.3299Z" fill="#D12E25"/>
<path d="M57.081 74.3299L105.567 49.9166C108.064 48.6592 106.439 40.9898 101.937 32.7865L98.6811 26.8535C94.1791 18.6502 88.505 13.0194 86.0078 14.2768L37.5216 38.6901C35.0243 39.9475 36.6495 47.6169 41.1515 55.8202L44.4076 61.7533C48.9096 69.9566 54.5837 75.5873 57.081 74.3299Z" fill="#D12E25"/>
<path d="M47.081 74.3299L95.5671 49.9166C98.0644 48.6592 96.4393 40.9898 91.9372 32.7865L88.6811 26.8535C84.1791 18.6502 78.505 13.0194 76.0078 14.2768L27.5216 38.6901C25.0243 39.9475 26.6495 47.6169 31.1515 55.8202L34.4076 61.7533C38.9096 69.9566 44.5837 75.5873 47.081 74.3299Z" fill="#D12E25"/>
<path d="M74.2342 109.011L147.084 69.8162C149.975 68.2609 154.104 70.6123 156.306 75.0684C158.508 79.5244 157.95 84.3976 155.059 85.9529L82.2096 125.148C79.3187 126.703 75.1899 124.351 72.9875 119.895C70.7852 115.439 71.3434 110.566 74.2342 109.011Z" fill="#D12E25"/>
<path d="M76.2342 136.011L149.084 96.8162C151.975 95.2609 156.104 97.6123 158.306 102.068C160.508 106.524 159.95 111.398 157.059 112.953L84.2096 152.148C81.3187 153.703 77.1899 151.351 74.9875 146.895C72.7852 142.439 73.3434 137.566 76.2342 136.011Z" fill="#D12E25"/>
<path d="M85.9613 109.008L13.2013 69.8187C10.3111 68.262 6.18438 70.6131 3.98401 75.0701C1.78363 79.5271 2.34285 84.4022 5.23305 85.9589L77.9931 125.149C80.8833 126.705 85.01 124.354 87.2104 119.897C89.4107 115.44 88.8515 110.565 85.9613 109.008Z" fill="#D12E25"/>
<path d="M85.9613 137.008L13.2013 97.8187C10.3111 96.262 6.18438 98.6131 3.98401 103.07C1.78363 107.527 2.34285 112.402 5.23305 113.959L77.9931 153.149C80.8833 154.705 85.01 152.354 87.2104 147.897C89.4107 143.44 88.8515 138.565 85.9613 137.008Z" fill="#D12E25"/>
<path d="M76.6843 3.52356L6.54187 41.3058C2.92917 43.2518 1.50873 47.8842 3.36925 51.6525L4.71487 54.378C6.57538 58.1464 11.0123 59.6237 14.625 57.6777L84.7675 19.8954C88.3802 17.9494 89.8006 13.3171 87.9401 9.54871L86.5945 6.82325C84.734 3.0549 80.297 1.57758 76.6843 3.52356Z" fill="#D12E25"/>
</g>
<defs>
<clipPath id="clip0_126_32">
<rect width="162" height="155" fill="white"/>
</clipPath>
</defs>
</svg>
